<svg width="1024" height="558" viewBox="0 0 1024 558" xmlns="http://www.w3.org/2000/svg">
  <path d="M 531 113 L 500 112 L 467 119 L 434 137 L 413 160 L 383 167 L 355 179 L 328 203 L 315 239 L 340 232 L 369 244 L 412 247 L 433 256 L 442 266 L 446 294 L 422 378 L 418 442 L 425 479 L 434 503 L 449 530 L 464 537 L 473 535 L 459 517 L 443 485 L 432 431 L 438 372 L 460 298 L 459 271 L 448 250 L 433 239 L 414 233 L 370 230 L 361 225 L 420 220 L 462 228 L 504 249 L 534 277 L 556 317 L 539 337 L 530 358 L 527 385 L 533 418 L 560 471 L 576 491 L 608 520 L 617 518 L 622 512 L 584 477 L 567 455 L 545 407 L 543 365 L 557 337 L 573 322 L 596 310 L 620 305 L 647 306 L 677 315 L 707 333 L 729 353 L 749 384 L 756 369 L 747 352 L 724 328 L 689 305 L 683 277 L 667 234 L 627 170 L 585 133 L 559 120 Z" fill="none" stroke="#D4AF37" stroke-width="2" />
  <path d="M 335 217 L 335 220 L 357 213 L 378 209 L 412 207 L 447 211 L 463 216 L 467 216 L 480 221 L 498 230 L 515 241 L 539 263 L 555 285 L 568 310 L 591 298 L 621 292 L 648 293 L 674 299 L 674 293 L 671 286 L 668 272 L 658 245 L 643 215 L 622 184 L 599 160 L 584 148 L 559 134 L 537 127 L 526 125 L 498 125 L 482 128 L 464 134 L 451 141 L 440 149 L 429 160 L 421 171 L 387 179 L 361 190 L 350 198 L 342 206 Z" fill="none" stroke="#D4AF37" stroke-width="2" />
</svg>